<mxfile host="app.diagrams.net" modified="2023-04-10T22:24:19.300Z" agent="Mozilla/5.0 (Windows NT 10.0; Win64; x64) AppleWebKit/537.36 (KHTML, like Gecko) Chrome/111.0.0.0 Safari/537.36" etag="ZCGa_UYuAmuzgFPcLbub" version="21.1.5" type="device">
  <diagram name="1 oldal" id="FgV44dJB46zexrC3gwDP">
    <mxGraphModel dx="1050" dy="549" grid="1" gridSize="10" guides="1" tooltips="1" connect="1" arrows="1" fold="1" page="1" pageScale="1" pageWidth="1169" pageHeight="827" math="0" shadow="0">
      <root>
        <mxCell id="0" />
        <mxCell id="1" parent="0" />
        <mxCell id="09Qb7z0ETwTrl_jfrOsJ-1" value="Felhasználó" style="shape=umlActor;verticalLabelPosition=bottom;verticalAlign=top;html=1;outlineConnect=0;labelBackgroundColor=none;rounded=0;" vertex="1" parent="1">
          <mxGeometry x="120" y="260" width="30" height="60" as="geometry" />
        </mxCell>
        <mxCell id="09Qb7z0ETwTrl_jfrOsJ-2" value="Anonim" style="shape=umlActor;verticalLabelPosition=bottom;verticalAlign=top;html=1;outlineConnect=0;labelBackgroundColor=none;rounded=0;" vertex="1" parent="1">
          <mxGeometry x="120" y="70" width="30" height="60" as="geometry" />
        </mxCell>
        <mxCell id="09Qb7z0ETwTrl_jfrOsJ-4" value="Regisztrál" style="ellipse;whiteSpace=wrap;html=1;labelBackgroundColor=none;rounded=0;" vertex="1" parent="1">
          <mxGeometry x="260" y="50" width="80" height="40" as="geometry" />
        </mxCell>
        <mxCell id="09Qb7z0ETwTrl_jfrOsJ-5" value="Bejelentkez" style="ellipse;whiteSpace=wrap;html=1;labelBackgroundColor=none;rounded=0;" vertex="1" parent="1">
          <mxGeometry x="260" y="110" width="80" height="40" as="geometry" />
        </mxCell>
        <mxCell id="09Qb7z0ETwTrl_jfrOsJ-6" value="" style="endArrow=none;html=1;rounded=0;entryX=1;entryY=0.3333333333333333;entryDx=0;entryDy=0;entryPerimeter=0;exitX=0;exitY=0.5;exitDx=0;exitDy=0;labelBackgroundColor=none;fontColor=default;" edge="1" parent="1" source="09Qb7z0ETwTrl_jfrOsJ-4" target="09Qb7z0ETwTrl_jfrOsJ-2">
          <mxGeometry width="50" height="50" relative="1" as="geometry">
            <mxPoint x="130" y="290" as="sourcePoint" />
            <mxPoint x="180" y="240" as="targetPoint" />
          </mxGeometry>
        </mxCell>
        <mxCell id="09Qb7z0ETwTrl_jfrOsJ-7" value="" style="endArrow=none;html=1;rounded=0;exitX=0;exitY=0.5;exitDx=0;exitDy=0;entryX=1;entryY=0.3333333333333333;entryDx=0;entryDy=0;entryPerimeter=0;labelBackgroundColor=none;fontColor=default;" edge="1" parent="1" source="09Qb7z0ETwTrl_jfrOsJ-5" target="09Qb7z0ETwTrl_jfrOsJ-2">
          <mxGeometry width="50" height="50" relative="1" as="geometry">
            <mxPoint x="270" y="80" as="sourcePoint" />
            <mxPoint x="160" y="100" as="targetPoint" />
          </mxGeometry>
        </mxCell>
        <mxCell id="09Qb7z0ETwTrl_jfrOsJ-8" value="Jegyet vesz" style="ellipse;whiteSpace=wrap;html=1;labelBackgroundColor=none;rounded=0;" vertex="1" parent="1">
          <mxGeometry x="320" y="230" width="80" height="40" as="geometry" />
        </mxCell>
        <mxCell id="09Qb7z0ETwTrl_jfrOsJ-9" value="Jegyet elad" style="ellipse;whiteSpace=wrap;html=1;labelBackgroundColor=none;rounded=0;" vertex="1" parent="1">
          <mxGeometry x="310" y="280" width="80" height="40" as="geometry" />
        </mxCell>
        <mxCell id="09Qb7z0ETwTrl_jfrOsJ-10" value="Névátírás?" style="ellipse;whiteSpace=wrap;html=1;labelBackgroundColor=none;rounded=0;" vertex="1" parent="1">
          <mxGeometry x="230" y="310" width="80" height="40" as="geometry" />
        </mxCell>
        <mxCell id="09Qb7z0ETwTrl_jfrOsJ-11" value="Rendező" style="shape=umlActor;verticalLabelPosition=bottom;verticalAlign=top;html=1;outlineConnect=0;labelBackgroundColor=none;rounded=0;" vertex="1" parent="1">
          <mxGeometry x="110" y="414" width="30" height="60" as="geometry" />
        </mxCell>
        <mxCell id="09Qb7z0ETwTrl_jfrOsJ-12" value="" style="endArrow=none;html=1;rounded=0;exitX=0;exitY=0.5;exitDx=0;exitDy=0;entryX=1;entryY=0.3333333333333333;entryDx=0;entryDy=0;entryPerimeter=0;labelBackgroundColor=none;fontColor=default;" edge="1" parent="1" source="09Qb7z0ETwTrl_jfrOsJ-8" target="09Qb7z0ETwTrl_jfrOsJ-1">
          <mxGeometry width="50" height="50" relative="1" as="geometry">
            <mxPoint x="270" y="140" as="sourcePoint" />
            <mxPoint x="160" y="100" as="targetPoint" />
          </mxGeometry>
        </mxCell>
        <mxCell id="09Qb7z0ETwTrl_jfrOsJ-13" value="" style="endArrow=none;html=1;rounded=0;exitX=0;exitY=0.5;exitDx=0;exitDy=0;entryX=1;entryY=0.3333333333333333;entryDx=0;entryDy=0;entryPerimeter=0;labelBackgroundColor=none;fontColor=default;" edge="1" parent="1" source="09Qb7z0ETwTrl_jfrOsJ-9" target="09Qb7z0ETwTrl_jfrOsJ-1">
          <mxGeometry width="50" height="50" relative="1" as="geometry">
            <mxPoint x="240" y="240" as="sourcePoint" />
            <mxPoint x="160" y="290" as="targetPoint" />
          </mxGeometry>
        </mxCell>
        <mxCell id="09Qb7z0ETwTrl_jfrOsJ-14" value="" style="endArrow=none;html=1;rounded=0;exitX=0;exitY=0.5;exitDx=0;exitDy=0;entryX=1;entryY=0.3333333333333333;entryDx=0;entryDy=0;entryPerimeter=0;labelBackgroundColor=none;fontColor=default;" edge="1" parent="1" source="09Qb7z0ETwTrl_jfrOsJ-10" target="09Qb7z0ETwTrl_jfrOsJ-1">
          <mxGeometry width="50" height="50" relative="1" as="geometry">
            <mxPoint x="250" y="250" as="sourcePoint" />
            <mxPoint x="170" y="300" as="targetPoint" />
          </mxGeometry>
        </mxCell>
        <mxCell id="09Qb7z0ETwTrl_jfrOsJ-15" value="Eseményt managel" style="ellipse;whiteSpace=wrap;html=1;labelBackgroundColor=none;rounded=0;" vertex="1" parent="1">
          <mxGeometry x="240" y="400" width="80" height="40" as="geometry" />
        </mxCell>
        <mxCell id="09Qb7z0ETwTrl_jfrOsJ-16" value="" style="endArrow=none;html=1;rounded=0;exitX=0;exitY=0.5;exitDx=0;exitDy=0;entryX=1;entryY=0.3333333333333333;entryDx=0;entryDy=0;entryPerimeter=0;labelBackgroundColor=none;fontColor=default;" edge="1" parent="1" source="09Qb7z0ETwTrl_jfrOsJ-15" target="09Qb7z0ETwTrl_jfrOsJ-11">
          <mxGeometry width="50" height="50" relative="1" as="geometry">
            <mxPoint x="240" y="340" as="sourcePoint" />
            <mxPoint x="160" y="290" as="targetPoint" />
          </mxGeometry>
        </mxCell>
        <mxCell id="09Qb7z0ETwTrl_jfrOsJ-17" value="" style="endArrow=classic;html=1;rounded=0;entryX=0.5;entryY=1;entryDx=0;entryDy=0;exitX=0;exitY=0.5;exitDx=0;exitDy=0;dashed=1;labelBackgroundColor=none;fontColor=default;" edge="1" parent="1" source="09Qb7z0ETwTrl_jfrOsJ-19" target="09Qb7z0ETwTrl_jfrOsJ-15">
          <mxGeometry width="50" height="50" relative="1" as="geometry">
            <mxPoint x="320" y="480" as="sourcePoint" />
            <mxPoint x="310" y="460" as="targetPoint" />
          </mxGeometry>
        </mxCell>
        <mxCell id="09Qb7z0ETwTrl_jfrOsJ-19" value="Létrehoz, updatel, töröl" style="ellipse;whiteSpace=wrap;html=1;labelBackgroundColor=none;rounded=0;" vertex="1" parent="1">
          <mxGeometry x="350" y="450" width="80" height="40" as="geometry" />
        </mxCell>
        <mxCell id="09Qb7z0ETwTrl_jfrOsJ-20" value="Promociok?" style="ellipse;whiteSpace=wrap;html=1;labelBackgroundColor=none;rounded=0;" vertex="1" parent="1">
          <mxGeometry x="240" y="490" width="80" height="40" as="geometry" />
        </mxCell>
        <mxCell id="09Qb7z0ETwTrl_jfrOsJ-21" value="" style="endArrow=none;html=1;rounded=0;exitX=0;exitY=0.5;exitDx=0;exitDy=0;entryX=1;entryY=0.3333333333333333;entryDx=0;entryDy=0;entryPerimeter=0;labelBackgroundColor=none;fontColor=default;" edge="1" parent="1" source="09Qb7z0ETwTrl_jfrOsJ-20" target="09Qb7z0ETwTrl_jfrOsJ-11">
          <mxGeometry width="50" height="50" relative="1" as="geometry">
            <mxPoint x="250" y="430" as="sourcePoint" />
            <mxPoint x="150" y="444" as="targetPoint" />
          </mxGeometry>
        </mxCell>
        <mxCell id="09Qb7z0ETwTrl_jfrOsJ-22" value="Adatot módosít" style="ellipse;whiteSpace=wrap;html=1;labelBackgroundColor=none;rounded=0;" vertex="1" parent="1">
          <mxGeometry x="290" y="180" width="80" height="40" as="geometry" />
        </mxCell>
        <mxCell id="09Qb7z0ETwTrl_jfrOsJ-23" value="" style="endArrow=none;html=1;rounded=0;exitX=0;exitY=0.5;exitDx=0;exitDy=0;entryX=1;entryY=0.3333333333333333;entryDx=0;entryDy=0;entryPerimeter=0;labelBackgroundColor=none;fontColor=default;" edge="1" parent="1" source="09Qb7z0ETwTrl_jfrOsJ-22" target="09Qb7z0ETwTrl_jfrOsJ-1">
          <mxGeometry width="50" height="50" relative="1" as="geometry">
            <mxPoint x="240" y="90" as="sourcePoint" />
            <mxPoint x="110" y="220" as="targetPoint" />
          </mxGeometry>
        </mxCell>
        <mxCell id="09Qb7z0ETwTrl_jfrOsJ-24" value="Helyszín" style="shape=umlActor;verticalLabelPosition=bottom;verticalAlign=top;html=1;outlineConnect=0;labelBackgroundColor=none;rounded=0;" vertex="1" parent="1">
          <mxGeometry x="110" y="550" width="30" height="60" as="geometry" />
        </mxCell>
        <mxCell id="09Qb7z0ETwTrl_jfrOsJ-27" value="Jegykezelés" style="ellipse;whiteSpace=wrap;html=1;labelBackgroundColor=none;rounded=0;" vertex="1" parent="1">
          <mxGeometry x="240" y="560" width="80" height="40" as="geometry" />
        </mxCell>
        <mxCell id="09Qb7z0ETwTrl_jfrOsJ-28" value="" style="endArrow=none;html=1;rounded=0;exitX=0;exitY=0.5;exitDx=0;exitDy=0;entryX=1;entryY=0.3333333333333333;entryDx=0;entryDy=0;entryPerimeter=0;labelBackgroundColor=none;fontColor=default;" edge="1" parent="1" source="09Qb7z0ETwTrl_jfrOsJ-27" target="09Qb7z0ETwTrl_jfrOsJ-24">
          <mxGeometry width="50" height="50" relative="1" as="geometry">
            <mxPoint x="250" y="520" as="sourcePoint" />
            <mxPoint x="150" y="444" as="targetPoint" />
          </mxGeometry>
        </mxCell>
        <mxCell id="09Qb7z0ETwTrl_jfrOsJ-30" value="" style="endArrow=classic;html=1;rounded=0;entryX=0.5;entryY=1;entryDx=0;entryDy=0;exitX=0;exitY=0.5;exitDx=0;exitDy=0;dashed=1;labelBackgroundColor=none;fontColor=default;" edge="1" source="09Qb7z0ETwTrl_jfrOsJ-31" parent="1" target="09Qb7z0ETwTrl_jfrOsJ-27">
          <mxGeometry width="50" height="50" relative="1" as="geometry">
            <mxPoint x="325" y="640" as="sourcePoint" />
            <mxPoint x="285" y="600" as="targetPoint" />
          </mxGeometry>
        </mxCell>
        <mxCell id="09Qb7z0ETwTrl_jfrOsJ-31" value="???" style="ellipse;whiteSpace=wrap;html=1;labelBackgroundColor=none;rounded=0;" vertex="1" parent="1">
          <mxGeometry x="355" y="610" width="80" height="40" as="geometry" />
        </mxCell>
        <mxCell id="09Qb7z0ETwTrl_jfrOsJ-32" value="Jegyeket tudja managelni?" style="ellipse;whiteSpace=wrap;html=1;labelBackgroundColor=none;rounded=0;" vertex="1" parent="1">
          <mxGeometry x="340" y="360" width="80" height="40" as="geometry" />
        </mxCell>
        <mxCell id="09Qb7z0ETwTrl_jfrOsJ-33" value="" style="endArrow=none;html=1;rounded=0;exitX=0;exitY=0.5;exitDx=0;exitDy=0;entryX=1;entryY=0.3333333333333333;entryDx=0;entryDy=0;entryPerimeter=0;labelBackgroundColor=none;fontColor=default;" edge="1" parent="1" source="09Qb7z0ETwTrl_jfrOsJ-32" target="09Qb7z0ETwTrl_jfrOsJ-11">
          <mxGeometry width="50" height="50" relative="1" as="geometry">
            <mxPoint x="340" y="300" as="sourcePoint" />
            <mxPoint x="230" y="384" as="targetPoint" />
          </mxGeometry>
        </mxCell>
      </root>
    </mxGraphModel>
  </diagram>
</mxfile>
